<svg viewBox="0 0 400 100" fill="none" xmlns="http://www.w3.org/2000/svg">
    <defs>
        <linearGradient id="iconGradient1" x1="0%" y1="0%" x2="100%" y2="100%">
            <stop offset="0%" stop-color="#6366f1" />
            <stop offset="100%" stop-color="#a855f7" />
        </linearGradient>
        <linearGradient id="iconGradient2" x1="0%" y1="0%" x2="100%" y2="100%">
            <stop offset="0%" stop-color="#a855f7" />
            <stop offset="100%" stop-color="#c084fc" />
        </linearGradient>
    </defs>
    <g>
        <rect x="15" y="15" width="12" height="70" fill="url(#iconGradient1)" rx="2" />
        <path
            d="M 27 45 L 65 15 L 75 20 L 75 25 L 37 55 Z"
            fill="url(#iconGradient2)"
        />
        <path
            d="M 27 45 L 75 75 L 75 85 L 65 85 L 37 55 Z"
            fill="url(#iconGradient1)"
        />
        <circle cx="80" cy="18" r="4" fill="#c084fc" />
        <circle cx="85" cy="30" r="3" fill="#a855f7" />
    </g>

    <g transform="translate(110, 0)">
        <path
            d="M 15 20 L 15 80 L 27 80 L 27 55 L 35 55 L 55 80 L 70 80 L 47 50 L 68 20 L 53 20 L 27 48 L 27 20 Z"
            fill="#8b5cf6" />
        <rect x="80" y="20" width="12" height="60" fill="#8b5cf6" />
        <rect x="105" y="20" width="50" height="12" fill="#8b5cf6" />
        <rect x="124" y="20" width="12" height="60" fill="#8b5cf6" />
        <path
            d="M 175 80 L 190 35 L 205 80 L 218 80 L 197 20 L 183 20 L 162 80 Z M 186 65 L 194 65 L 190 50 Z"
            fill="#8b5cf6" />
    </g>
</svg>